<?xml version="1.0" standalone="no"?><!DOCTYPE svg PUBLIC "-//W3C//DTD SVG 1.1//EN" "http://www.w3.org/Graphics/SVG/1.1/DTD/svg11.dtd"><svg t="1759506016928" class="icon" viewBox="0 0 1024 1024" version="1.1" xmlns="http://www.w3.org/2000/svg" p-id="2336" width="200" height="200" xmlns:xlink="http://www.w3.org/1999/xlink"><path d="M512 1024c-116.238 0-207.29-213.24-207.29-485.46 0-101.034 12.774-197.688 36.94-279.512 24.1-81.604 57.758-142.56 97.336-176.278 0.124-0.106 0.248-0.21 0.376-0.31l6.024-4.808a15.224 15.224 0 0 1 18.992 23.796l-5.828 4.65c-34.496 29.496-65.636 86.862-87.702 161.574-23.35 79.062-35.694 172.734-35.694 270.888 0 123.678 19.576 239.72 55.126 326.752 33.294 81.512 77.658 128.262 121.72 128.262s88.426-46.75 121.72-128.262c35.548-87.032 55.126-203.074 55.126-326.752 0-98.154-12.342-191.826-35.694-270.888-22.06-74.69-53.184-132.042-87.67-161.546l-5.862-4.626a15.224 15.224 0 0 1 18.86-23.902l6.092 4.808c0.15 0.118 0.298 0.238 0.442 0.362 39.576 33.718 73.234 94.674 97.336 176.278 24.166 81.824 36.94 178.478 36.94 279.512C719.292 810.76 628.238 1024 512 1024z" fill="#FBC700" p-id="2337"></path><path d="M234.822 841.816c-30.976 0-58.24-4.044-81.038-12.148a12.624 12.624 0 0 1-0.458-0.172l-7.176-2.814a15.224 15.224 0 0 1 11.114-28.346l6.94 2.722c42.794 15.128 108.04 13.414 183.776-4.834 80.146-19.31 167.438-55.456 252.442-104.532 107.108-61.84 197.816-136.814 255.412-211.116 53.946-69.59 72.25-131.386 50.218-169.544-22.03-38.156-84.696-53.204-171.94-41.282-93.146 12.73-203.43 53.798-310.538 115.636-85.004 49.076-159.954 106.602-216.748 166.354-53.65 56.446-87.756 112.082-96.068 156.696l-1.074 7.388a15.224 15.224 0 0 1-30.13-4.382l1.116-7.678a13.26 13.26 0 0 1 0.094-0.564c9.412-51.132 45.372-110.76 103.994-172.434 58.778-61.84 136.096-121.23 223.594-171.746 235.75-136.11 465.948-163.876 524.066-63.21 58.12 100.666-81.026 286.14-316.774 422.25-87.498 50.518-177.588 87.782-260.534 107.764-44.222 10.654-84.704 15.992-120.288 15.992z" fill="#60B9FE" p-id="2338"></path><path d="M789.178 841.816c-35.586 0-76.062-5.336-120.29-15.992-82.944-19.984-173.036-57.248-260.534-107.764C172.604 581.95 33.46 396.474 91.58 295.81c58.118-100.664 288.318-72.9 524.066 63.21 87.498 50.516 164.816 109.906 223.594 171.746 58.62 61.674 94.58 121.302 103.992 172.434 0.034 0.188 0.066 0.374 0.094 0.562l1.118 7.678a15.224 15.224 0 0 1-30.13 4.386l-1.076-7.39c-8.31-44.616-42.414-100.248-96.068-156.696-56.794-59.752-131.744-117.278-216.748-166.354-107.108-61.838-217.392-102.906-310.538-115.636-87.242-11.922-149.908 3.122-171.94 41.282s-3.726 99.954 50.218 169.544c57.598 74.3 148.304 149.276 255.412 211.116 85.004 49.076 172.296 85.224 252.442 104.532 75.736 18.246 140.984 19.96 183.776 4.834l6.94-2.722a15.222 15.222 0 1 1 11.114 28.346l-7.176 2.814a17.94 17.94 0 0 1-0.458 0.172c-22.792 8.104-50.062 12.148-81.034 12.148z" fill="#ED5469" p-id="2339"></path><path d="M953.386 714.514a69.592 69.592 0 0 0-2.882-1.568 71.77 71.77 0 0 0-23.53 24.62c-19.358 33.53-8.756 76.128 23.494 96.816a67.952 67.952 0 0 0 27.916-26.576c18.858-32.664 7.666-74.434-24.998-93.292z" fill="#F27182" p-id="2340"></path><path d="M928.398 739.512a67.96 67.96 0 0 1 25-24.99l-0.014-0.008c-32.664-18.86-74.434-7.668-93.292 24.998-18.86 32.664-7.668 74.434 24.998 93.292 21.89 12.638 47.86 11.764 68.292-0.008-32.654-18.864-43.84-60.624-24.984-93.284z" fill="#ED5469" p-id="2341"></path><path d="M549.242 441.22c-35.71 17.824-60.256 54.686-60.256 97.31s24.546 79.486 60.256 97.312c39.144-14.992 66.95-52.894 66.95-97.312 0-44.416-27.806-82.318-66.95-97.31z" fill="#5291D9" p-id="2342"></path><path d="M491.702 538.53c0-42.616 25.598-79.232 62.244-95.376a103.804 103.804 0 0 0-41.948-8.818c-57.544 0-104.192 46.648-104.192 104.192s46.648 104.192 104.192 104.192a103.772 103.772 0 0 0 41.948-8.818c-36.646-16.138-62.244-52.756-62.244-95.372z" fill="#0972D0" p-id="2343"></path><path d="M546.148 9.162a69.592 69.592 0 0 0-2.882-1.568 71.77 71.77 0 0 0-23.53 24.62c-19.358 33.53-8.756 76.128 23.494 96.816a67.952 67.952 0 0 0 27.916-26.576c18.858-32.664 7.666-74.434-24.998-93.292z" fill="#FFE02F" p-id="2344"></path><path d="M521.162 34.16a67.96 67.96 0 0 1 25-24.99l-0.014-0.008c-32.664-18.86-74.434-7.668-93.292 24.998-18.86 32.664-7.668 74.434 24.998 93.292 21.89 12.638 47.86 11.764 68.292-0.008-32.656-18.864-43.842-60.624-24.984-93.284z" fill="#FBC700" p-id="2345"></path><path d="M138.91 714.518a69.592 69.592 0 0 0-2.882-1.568 71.77 71.77 0 0 0-23.53 24.62c-19.358 33.53-8.756 76.128 23.494 96.816a67.952 67.952 0 0 0 27.916-26.576c18.858-32.664 7.666-74.434-24.998-93.292z" fill="#8BCAFF" p-id="2346"></path><path d="M113.924 739.516a67.96 67.96 0 0 1 25-24.99l-0.014-0.008c-32.664-18.86-74.434-7.668-93.292 24.998-18.86 32.664-7.668 74.434 24.998 93.292 21.89 12.638 47.86 11.764 68.292-0.008-32.654-18.864-43.84-60.624-24.984-93.284z" fill="#60B9FE" p-id="2347"></path></svg>